Simulation
nRows=29
nColumns=15
endheader
time  TH_x TH_y TH_z SC_y  SC_z  SC_x  AC_y  AC_z  AC_x  GH_y  GH_z  GH_yy  EL_x  PS_y
0.0  0.000000  0.000000  0.000000  -29.272814627910375  1.375503581821008  18.457592173039025  59.420445630296115  9.026712556479518  -0.7969329642025829  55.032617767015545  48.2062825236991  -54.157706481895254  23.95716947963922  0.000000
0.04  0.000000  0.000000  0.000000  -29.244139241715633  1.6041594051214216  19.153816748785534  58.446856287837704  9.042945879605583  0.015582570377642308  54.35135585783716  49.414481560456764  -53.45207624791755  24.396492041580366  0.000000
0.08  0.000000  0.000000  0.000000  -28.95405753780374  1.8259221177913483  19.497085102222954  57.98356118267144  8.693195787259278  0.3977661569649189  53.86678778720518  49.922748988315014  -52.636870659181795  24.61165571899976  0.000000
0.12  0.000000  0.000000  0.000000  -28.849119435717405  1.862631046979814  19.638194922348184  57.92689820007189  8.503440304687288  0.48170572700351705  53.660927931492225  50.06864749486198  -51.98848858415647  24.7123861678703  0.000000
0.16  0.000000  0.000000  0.000000  -28.711314845309598  1.9976550079448778  19.674430131784366  57.78360488160686  8.345951236148586  0.5594654975062141  53.403146026491584  50.110543013554306  -50.95992644108924  24.705958244378337  0.000000
0.2  0.000000  0.000000  0.000000  -28.654285175109482  2.0730526554645015  19.66350631419668  57.65059152602911  8.295792596190731  0.6782767640543769  52.97205364676206  50.19778710508206  -49.61796054988974  24.629873832602456  0.000000
0.24  0.000000  0.000000  0.000000  -28.591996106596373  2.238220443411053  19.613109865977385  57.453713748136636  8.296508530250767  0.89571825651943  52.29235926588741  50.426147563718715  -47.80205163555935  24.5376582572226  0.000000
0.28  0.000000  0.000000  0.000000  -28.578437385877265  2.421508576752797  19.50629176101905  57.24403764678168  8.331373926488423  1.250379994134371  51.40783545709382  50.86155676566374  -45.54502809635053  24.498395021915808  0.000000
0.32  0.000000  0.000000  0.000000  -28.580824426315814  2.687677258156243  19.335728043202554  57.048730179180765  8.428472352478392  1.7332772280949387  50.41753431306902  51.52182065650071  -42.95978053093005  24.551955334017503  0.000000
0.36  0.000000  0.000000  0.000000  -28.616996318985723  2.991147020861438  19.08335352954326  56.84815590789788  8.559311969830006  2.401395493383571  49.4268162040877  52.410205673298414  -40.167311393471074  24.674313729760303  0.000000
0.4  0.000000  0.000000  0.000000  -28.66780824144183  3.354693840019764  18.740951691193995  56.66244095219912  8.7889494853063  3.24394518957067  48.55441909978412  53.47024711597348  -37.406809712330926  24.85956946283985  0.000000
0.44  0.000000  0.000000  0.000000  -28.7493089443248  3.748336350296352  18.29874695160591  56.468104593183554  9.095632100663222  4.307589924976644  47.88483169420553  54.66916793182985  -34.75711171286617  25.07129875834912  0.000000
0.48  0.000000  0.000000  0.000000  -28.851561659184075  4.162853733359634  17.750484521373856  56.289668903804085  9.542161193331497  5.585678745947961  47.48887653481757  55.92567219997657  -32.38819914367589  25.281081388032472  0.000000
0.52  0.000000  0.000000  0.000000  -29.000326738860576  4.566899910902967  17.108784514000654  56.1315106811424  10.116927235494376  7.087065704621875  47.41411070996749  57.1970018747804  -30.26736737438695  25.437884606204925  0.000000
0.56  0.000000  0.000000  0.000000  -29.19583437318485  4.936330617608078  16.401027529446882  56.0212898033223  10.827872633144588  8.773371553540885  47.67268184231767  58.419603339538185  -28.432439394126575  25.516186546934204  0.000000
0.6  0.000000  0.000000  0.000000  -29.44253892919461  5.243651064799346  15.659918126675551  55.96318268078014  11.666536729111483  10.602022488969654  48.26409941397704  59.54812397067677  -26.826017487002115  25.48171977202298  0.000000
0.64  0.000000  0.000000  0.000000  -29.72202986635783  5.4823974597991985  14.894935832842322  55.936453046791854  12.59089286764506  12.53603525419477  49.16415811995209  60.53648506610018  -25.472460507480378  25.3199545792562  0.000000
0.68  0.000000  0.000000  0.000000  -30.009628164820757  5.652015112465719  14.139231112082973  55.93095434819338  13.574860589296803  14.49138813780706  50.333566145308446  61.363372247790174  -24.324720086567968  25.029529586046827  0.000000
0.72  0.000000  0.000000  0.000000  -30.277773071192428  5.761906440179508  13.406207149725157  55.923119776807575  14.539344168935816  16.42700503134503  51.72661899903286  62.01893311708968  -23.37071773113892  24.621361351535775  0.000000
0.76  0.000000  0.000000  0.000000  -30.508857614605695  5.833101013763658  12.728952687376033  55.92103600322465  15.452303030249585  18.26436446505599  53.273363056167945  62.51013549363322  -22.58878087614476  24.128667514494616  0.000000
0.8  0.000000  0.000000  0.000000  -30.68041880446448  5.889835284876681  12.105729038147688  55.90371908629185  16.25271570796151  19.973002635535853  54.90569921453102  62.85926621678675  -21.960231188926507  23.6023141536653  0.000000
0.84  0.000000  0.000000  0.000000  -30.78402003384232  5.962356691649554  11.546522655737512  55.87924293912837  16.92679935641698  21.502818062669046  56.5384449702669  63.09423968398689  -21.491189695543436  23.07948231419154  0.000000
0.88  0.000000  0.000000  0.000000  -30.808878825975995  6.0538643023738885  11.042944199553924  55.83352773399538  17.456325780372737  22.82551947744054  58.10084318750152  63.25034178629245  -21.13274028792815  22.580055355726838  0.000000
0.92  0.000000  0.000000  0.000000  -30.77242474921541  6.146408282550856  10.607628027349051  55.7816814802786  17.863520922067543  23.90213754939031  59.5216377757831  63.35252103651221  -20.839567013573504  22.08387341476279  0.000000
0.96  0.000000  0.000000  0.000000  -30.690515295414315  6.220125345401699  10.239688451912945  55.71693741929973  18.162147243120035  24.706853955836742  60.74562718746928  63.433520998231344  -20.532537699514872  21.573787519344695  0.000000
1.0  0.000000  0.000000  0.000000  -30.59161730341876  6.258763139504648  9.95319987060381  55.65224680892799  18.37144204313288  25.221764359336117  61.718102019155275  63.51097151171276  -20.190000145555242  21.03549505728872  0.000000
1.04  0.000000  0.000000  0.000000  -30.483244150642644  6.260218158265145  9.746427626505806  55.58437735262818  18.495747688450226  25.448811710064458  62.3933790915344  63.590467787825574  -19.834736557687428  20.504096896066923  0.000000
1.08  0.000000  0.000000  0.000000  -30.37878835044986  6.237101699884921  9.6238307659916  55.52022131928855  18.53582512930513  25.405814245008855  62.740417309310914  63.66052448962596  -19.55400137506379  20.03431845846597  0.000000
1.12  0.000000  0.000000  0.000000  -30.27903605565957  6.197481128928956  9.58328933095917  55.45744613732776  18.489785737951056  25.117553595360008  62.758384299219586  63.70020455177307  -19.440051671524767  19.68118236430078  0.000000
